<svg width="54" height="55" viewBox="0 0 54 55" fill="none" xmlns="http://www.w3.org/2000/svg">
<path d="M36.0375 31.075L32.8625 30.7125C32.4892 30.6686 32.1108 30.71 31.7557 30.8334C31.4006 30.9568 31.0782 31.159 30.8125 31.425L28.5125 33.725C24.9642 31.9199 22.0801 29.0357 20.275 25.4875L22.5875 23.175C23.125 22.6375 23.3875 21.8875 23.3 21.125L22.9375 17.975C22.8669 17.3651 22.5743 16.8025 22.1156 16.3945C21.6568 15.9864 21.064 15.7615 20.45 15.7625H18.2875C16.875 15.7625 15.7 16.9375 15.7875 18.35C16.45 29.025 24.9875 37.55 35.65 38.2125C37.0625 38.3 38.2375 37.125 38.2375 35.7125V33.55C38.25 32.2875 37.3 31.225 36.0375 31.075Z" fill="#184B7E"/>
<path d="M53.5 27.5C53.5 42.4204 41.6269 54.5 27 54.5C12.3731 54.5 0.5 42.4204 0.5 27.5C0.5 12.5796 12.3731 0.5 27 0.5C41.6269 0.5 53.5 12.5796 53.5 27.5Z" stroke="#184B7E"/>
</svg>
