<svg width="101" height="102" viewBox="0 0 101 102" fill="none" xmlns="http://www.w3.org/2000/svg">
<path d="M13.9813 1.67772C17.4909 0.407604 21.2838 0.174328 24.9189 1.005C28.554 1.83567 31.8823 3.69618 34.5168 6.37031C37.1513 9.04444 38.9839 12.4224 39.8016 16.1116C40.6193 19.8008 40.3886 23.6497 39.1363 27.2111L100.139 89.118L88.2031 101.225L27.2 39.3242C23.6897 40.595 19.8961 40.8286 16.2602 39.9977C12.6243 39.1669 9.29542 37.3058 6.66066 34.6308C4.02589 31.9558 2.19345 28.5768 1.37638 24.8867C0.559309 21.1965 0.791172 17.3468 2.04501 13.7851L14.6225 26.5546C16.2138 28.1144 18.3452 28.9774 20.5575 28.9579C22.7697 28.9384 24.886 28.0379 26.4504 26.4503C28.0147 24.8628 28.9021 22.7152 28.9213 20.4701C28.9406 18.2251 28.0901 16.0622 26.5531 14.4473L13.9813 1.67772ZM72.2956 12.4265L90.1944 2.33418L98.1481 10.4115L88.2031 28.5697L78.2581 30.5904L66.3331 42.6978L58.3738 34.6262L70.3044 22.5188L72.2956 12.4265ZM32.5213 56.8259L44.4519 68.939L16.6081 97.1953C15.0727 98.7388 13.0122 99.6256 10.8514 99.6728C8.69064 99.7199 6.59443 98.9238 4.99506 97.4486C3.39569 95.9735 2.41512 93.9317 2.25556 91.7444C2.09601 89.5571 2.76963 87.3911 4.13751 85.693L4.68314 85.0822L32.5213 56.8259Z" fill="#184B7E"/>
</svg>
