<svg width="109" height="109" viewBox="0 0 109 109" fill="none" xmlns="http://www.w3.org/2000/svg">
<path d="M70.8066 3.08919C72.4175 2.71894 74.1037 2.85947 75.6311 3.49125C77.1585 4.12303 78.4513 5.21472 79.33 6.61473L87.2406 19.2446C87.8784 20.2619 88.7382 21.1216 89.7554 21.7594L102.385 29.67C103.788 30.5481 104.883 31.8417 105.516 33.3708C106.149 34.8999 106.29 36.5884 105.919 38.2014L102.576 52.7174C102.307 53.8905 102.307 55.1095 102.576 56.2827L105.919 70.8066C106.286 72.4172 106.144 74.1023 105.511 75.6281C104.878 77.154 103.785 78.445 102.385 79.3221L89.7554 87.2406C88.7382 87.8784 87.8784 88.7382 87.2406 89.7554L79.33 102.385C78.4524 103.787 77.1601 104.88 75.6326 105.513C74.1052 106.147 72.4184 106.288 70.8066 105.919L56.2827 102.576C55.1121 102.308 53.8959 102.308 52.7253 102.576L38.2013 105.919C36.5896 106.288 34.9028 106.147 33.3753 105.513C31.8478 104.88 30.5555 103.787 29.678 102.385L21.7674 89.7554C21.1273 88.7373 20.2647 87.8775 19.2446 87.2406L6.62266 79.33C5.2212 78.4525 4.12789 77.1601 3.49465 75.6327C2.8614 74.1052 2.71968 72.4184 3.08916 70.8066L6.4237 56.2827C6.69334 55.1095 6.69334 53.8905 6.4237 52.7174L3.0812 38.2014C2.71069 36.5876 2.85272 34.8985 3.48751 33.3693C4.1223 31.8401 5.21824 30.547 6.62266 29.67L19.2446 21.7594C20.2647 21.1225 21.1273 20.2627 21.7674 19.2446L29.678 6.61473C30.5561 5.21623 31.8476 4.12554 33.3734 3.49385C34.8991 2.86215 36.5836 2.72073 38.1934 3.08919L52.7253 6.42373C53.8959 6.69215 55.1121 6.69215 56.2827 6.42373L70.8066 3.08919Z" stroke="#184B7E" stroke-width="4"/>
<path d="M34.7235 58.7658L50.9187 74.2765L74.2765 34.7236" stroke="#184B7E" stroke-width="4" stroke-linecap="round" stroke-linejoin="round"/>
</svg>
